#!OML:ASF I:\Actors\actors\Patient Classification 2\Patient 1\Session 1\actor1.ASF
:FULLY-SPECIFIED
:DEGREES
540
root -0.67031 18.6775 5.2403 0.093449 8.3299 -7.47885
lowerback 23.9394 3.64186 -0.321658
upperback 2.20606 4.56947 -0.945115
thorax -10.8515 2.1228 -2.35834
lowerneck -20.0567 -6.60727 -5.58523
upperneck 12.3221 -8.49536 6.3569
head 7.57874 -3.72837 1.93428
rclavicle -1.59028e-014 2.94201e-014
rhumerus 3.12927 -29.6198 -37.0596
rradius 105.879
rwrist 5.36876
rhand -0.655301 -43.0937
rfingers 7.12502
rthumb 24.9626 -71.4831
lclavicle -1.59028e-014 2.94201e-014
lhumerus -20.7931 -17.5995 69.1732
lradius 122.399
lwrist 0.236495
lhand -0.843049 -27.7783
lfingers 7.12502
lthumb 24.7826 0.635973
rfemur 7.12728 -7.11923 21.0758
rtibia 1.11319e-014
rfoot -14.9875 -11.2838
rtoes -8.42829
lfemur -15.6613 -4.00958 -5.64584
ltibia 33.4997
lfoot -16.4355 1.96803
ltoes -57.5551
541
root -0.644718 18.7069 5.21751 0.186081 8.579 -7.22684
lowerback 24.9826 3.83078 -0.0323894
upperback 2.17307 4.82859 -1.36146
thorax -11.3786 2.20118 -3.15178
lowerneck -19.6977 -6.84004 -5.4965
upperneck 11.7483 -8.87583 6.67814
head 7.3661 -3.89256 1.98808
rclavicle -3.33958e-014 -9.54166e-015
rhumerus 7.65998 -31.842 -34.9071
rradius 99.9199
rwrist 2.76434
rhand 0.513141 -42.4159
rfingers 7.12502
rthumb 26.0818 -70.6451
lclavicle -3.33958e-014 -9.54166e-015
lhumerus -20.6209 -17.3846 67.7682
lradius 123.64
lwrist 0.585868
lhand -1.14586 -28.0811
lfingers 7.12502
lthumb 24.4924 0.372806
rfemur 6.96957 -7.32965 20.7122
rtibia 3.02153e-014
rfoot -14.7602 -11.466
rtoes -8.65249
lfemur -15.7096 -4.24785 -6.06995
ltibia 33.1525
lfoot -15.9732 2.62058
ltoes -57.5763
542
root -0.625012 18.7323 5.18041 0.234938 8.7463 -6.93211
lowerback 26.203 4.00279 0.384793
upperback 2.22912 5.09254 -1.8493
thorax -11.8691 2.26828 -4.12468
lowerneck -19.4188 -7.13229 -5.43022
upperneck 11.0844 -9.33608 7.11794
head 7.15217 -4.08765 2.0731
rclavicle 1.74931e-014 -2.22639e-014
rhumerus 12.6845 -33.7116 -33.203
rradius 92.6494
rwrist 2.15866
rhand 0.68046 -43.2979
rfingers 7.12502
rthumb 26.242 -71.5034
lclavicle 1.74931e-014 -2.22639e-014
lhumerus -20.2086 -17.0752 66.3538
lradius 124.64
lwrist 1.09207
lhand -1.48451 -28.303
lfingers 7.12502
lthumb 24.1677 0.194404
rfemur 6.80808 -7.46223 20.3265
rtibia 2.06736e-014
rfoot -14.6095 -11.709
rtoes -8.44683
lfemur -15.7244 -4.31873 -6.51091
ltibia 32.816
lfoot -15.6057 2.95756
ltoes -57.4907
543
root -0.609366 18.7548 5.13835 0.467991 8.82347 -6.63198
lowerback 27.1673 4.16025 0.849884
upperback 2.33013 5.35949 -2.33522
thorax -12.152 2.33813 -5.11507
lowerneck -19.3227 -7.55939 -5.7386
upperneck 10.5056 -9.92839 7.89623
head 7.04663 -4.32834 2.30264
rclavicle 1.27222e-014 -7.95139e-015
rhumerus 17.9493 -34.8454 -32.5058
rradius 83.7266
rwrist 2.24761
rhand 0.108339 -44.2918
rfingers 7.12502
rthumb 25.6941 -72.5776
lclavicle 1.27222e-014 -7.95139e-015
lhumerus -19.7046 -16.6074 65.1416
lradius 125.429
lwrist 1.76019
lhand -1.815 -28.4914
lfingers 7.12502
lthumb 23.8508 0.0478137
rfemur 6.41572 -7.50753 19.9853
rtibia -7.95139e-016
rfoot -14.4525 -12.0026
rtoes -7.39107
lfemur -15.9353 -4.31524 -6.903
ltibia 32.5147
lfoot -15.2988 3.06497
ltoes -57.3438
544
root -0.602376 18.7747 5.09987 0.910098 8.74664 -6.39923
lowerback 27.6785 4.36077 1.14367
upperback 2.43876 5.64797 -2.74701
thorax -12.196 2.43911 -5.89813
lowerneck -19.4441 -8.05508 -6.32604
upperneck 10.1865 -10.5781 8.86991
head 7.10074 -4.58048 2.6201
rclavicle -3.22031e-014 2.70347e-014
rhumerus 21.366 -34.5488 -32.2078
rradius 75.4126
rwrist 3.63993
rhand 0.586885 -44.9814
rfingers 7.12502
rthumb 26.1524 -73.2002
lclavicle -3.22031e-014 2.70347e-014
lhumerus -19.3031 -15.8327 64.2557
lradius 126.058
lwrist 2.32928
lhand -1.78893 -28.5874
lfingers 7.12502
lthumb 23.8758 -0.0514202
rfemur 5.78368 -7.40458 19.7895
rtibia -9.54166e-015
rfoot -14.191 -12.328
rtoes -6.74792
lfemur -16.3586 -4.15739 -7.147
ltibia 32.2884
lfoot -14.9214 3.13344
ltoes -57.3624
545
root -0.607839 18.7889 5.06038 1.32431 8.50557 -6.26113
lowerback 27.9062 4.61751 1.08944
upperback 2.65958 5.92906 -2.98119
thorax -12.0084 2.57366 -6.24143
lowerneck -19.7525 -8.47032 -6.7368
upperneck 9.9799 -11.112 9.54432
head 7.19343 -4.78787 2.82045
rclavicle 8.0309e-014 -5.88403e-014
rhumerus 24.3283 -33.5511 -33.1262
rradius 68.8166
rwrist 3.09284
rhand 0.649339 -47.7942
rfingers 7.12502
rthumb 26.2122 -76.0041
lclavicle 8.0309e-014 -5.88403e-014
lhumerus -19.0594 -14.6776 63.8364
lradius 126.574
lwrist 2.86588
lhand -1.45157 -28.5692
lfingers 7.12502
lthumb 24.1993 -0.0759551
rfemur 5.16372 -7.14109 19.7462
rtibia -3.97569e-015
rfoot -13.9141 -12.6811
rtoes -6.66666
lfemur -16.7817 -3.67284 -7.23387
ltibia 32.1682
lfoot -14.5299 3.01382
ltoes -57.4476
546
root -0.615819 18.7974 5.01369 1.68646 8.26047 -6.19609
lowerback 27.952 4.84674 0.944381
upperback 2.99079 6.16327 -3.10824
thorax -11.623 2.70677 -6.36318
lowerneck -20.1461 -8.74733 -6.94664
upperneck 9.75585 -11.4188 9.72151
head 7.23336 -4.91998 2.85702
rclavicle 3.29983e-014 -1.59028e-014
rhumerus 26.2235 -30.752 -32.9299
rradius 62.3923
rwrist 2.89255
rhand -0.650204 -47.765
rfingers 7.12502
rthumb 24.9674 -76.1538
lclavicle 3.29983e-014 -1.59028e-014
lhumerus -18.7693 -13.4496 63.9229
lradius 126.868
lwrist 3.35311
lhand -1.14206 -28.3053
lfingers 7.12502
lthumb 24.496 0.14814
rfemur 4.56138 -6.87245 19.7698
rtibia 2.38542e-015
rfoot -13.6392 -13.0375
rtoes -6.4647
lfemur -17.2612 -3.18381 -7.25025
ltibia 32.162
lfoot -14.2038 2.93089
ltoes -57.4531
547
root -0.622066 18.7987 4.97655 1.91613 8.10016 -6.09837
lowerback 28.0954 5.05114 0.836634
upperback 3.22708 6.37165 -3.26697
thorax -11.3933 2.81683 -6.55181
lowerneck -20.0796 -8.88851 -6.943
upperneck 9.41639 -11.5732 9.6512
head 7.11864 -5.01108 2.81711
rclavicle -2.14687e-014 1.11319e-014
rhumerus 25.724 -26.7453 -32.0547
rradius 58.3881
rwrist 2.9227
rhand -0.388997 -46.9127
rfingers 7.12502
rthumb 25.2177 -75.2664
lclavicle -2.14687e-014 1.11319e-014
lhumerus -18.5464 -12.6159 64.5063
lradius 126.734
lwrist 3.52691
lhand -1.08671 -27.9652
lfingers 7.12502
lthumb 24.5491 0.481023
rfemur 4.15027 -6.68739 19.7091
rtibia -4.77083e-015
rfoot -13.3431 -13.2744
rtoes -6.61733
lfemur -17.6421 -2.88428 -7.33757
ltibia 32.2547
lfoot -14.002 2.97488
ltoes -57.3859
548
root -0.632599 18.79 4.95506 1.90826 8.00988 -5.93625
lowerback 28.4241 5.2877 0.557105
upperback 3.38831 6.58177 -3.28825
thorax -11.3824 2.92587 -6.51536
lowerneck -19.5403 -8.9496 -7.30934
upperneck 9.04449 -11.5746 9.74374
head 6.93742 -5.04443 2.92331
rclavicle -8.70677e-014 3.65764e-014
rhumerus 23.9312 -21.8448 -31.2215
rradius 57.1666
rwrist 1.50441
rhand -0.622461 -48.3915
rfingers 7.12502
rthumb 24.994 -76.7766
lclavicle -8.70677e-014 3.65764e-014
lhumerus -19.0228 -11.928 65.5824
lradius 126.678
lwrist 3.64079
lhand -1.17561 -27.8245
lfingers 7.12502
lthumb 24.4639 0.63326
rfemur 4.09209 -6.57176 19.5407
rtibia 1.90833e-014
rfoot -13.1597 -13.3303
rtoes -6.72268
lfemur -17.775 -2.62568 -7.52529
ltibia 32.439
lfoot -13.9655 3.02368
ltoes -57.4294
549
root -0.644782 18.7729 4.93459 1.86506 8.1163 -5.63706
lowerback 28.6384 5.59355 0.0960644
upperback 3.68988 6.84372 -3.18485
thorax -11.1842 3.08002 -6.22696
lowerneck -19.2208 -9.03384 -7.7192
upperneck 8.72838 -11.5838 9.79243
head 6.81031 -5.07718 3.01379
rclavicle -1.51076e-014 -1.66979e-014
rhumerus 21.1365 -17.7115 -31.6767
rradius 58.7476
rwrist 0.650869
rhand 1.07964 -46.7636
rfingers 7.12502
rthumb 26.6241 -74.9116
lclavicle -1.51076e-014 -1.66979e-014
lhumerus -19.5143 -11.4916 67.3711
lradius 126.539
lwrist 3.48245
lhand -1.16545 -27.7008
lfingers 7.12502
lthumb 24.4736 0.755677
rfemur 4.12211 -6.65508 19.2002
rtibia -1.59028e-015
rfoot -13.1108 -13.323
rtoes -6.60567
lfemur -17.9241 -2.52815 -7.90899
ltibia 32.6175
lfoot -13.9887 3.21919
ltoes -57.5591
550
root -0.654304 18.7476 4.91467 1.83827 8.34975 -5.33638
lowerback 28.7469 5.99301 -0.295962
upperback 4.10381 7.25689 -3.03302
thorax -10.7923 3.31085 -5.95464
lowerneck -19.2609 -9.18723 -7.71266
upperneck 8.50393 -11.7276 9.51636
head 6.73541 -5.17275 2.90576
rclavicle -1.38354e-013 7.4743e-014
rhumerus 17.3876 -14.6232 -33.2022
rradius 62.0761
rwrist -0.392233
rhand 1.89502 -46.8866
rfingers 7.12502
rthumb 27.4042 -74.9137
lclavicle -1.38354e-013 7.4743e-014
lhumerus -19.8681 -11.5789 69.5621
lradius 126.385
lwrist 3.14168
lhand -0.985223 -27.382
lfingers 7.12502
lthumb 24.6464 1.05102
rfemur 4.14645 -6.86441 18.8471
rtibia 2.38542e-015
rfoot -13.0642 -13.3217
rtoes -7.17023
lfemur -18.1593 -2.63369 -8.33335
ltibia 32.8857
lfoot -14.179 3.54037
ltoes -57.6061
551
root -0.688296 18.7159 4.94002 0.959057 8.17619 -5.23335
lowerback 29.2997 6.77047 -1.29281
upperback 4.75728 8.00329 -2.43737
thorax -10.4798 3.71419 -5.00048
lowerneck -18.5169 -8.8964 -7.9959
upperneck 7.40857 -11.2477 9.68087
head 6.2498 -4.98315 3.10438
rclavicle -4.6118e-014 4.53229e-014
rhumerus 13.7119 -11.7638 -35.0938
rradius 65.6222
rwrist -1.20703
rhand 3.61296 -49.2623
rfingers 7.12502
rthumb 29.0461 -77.0182
lclavicle -4.6118e-014 4.53229e-014
lhumerus -20.4908 -11.6549 72.0469
lradius 126.153
lwrist 2.54182
lhand -0.75862 -27.3189
lfingers 7.12502
lthumb 24.8636 1.08424
rfemur 5.2771 -6.6441 18.7462
rtibia -7.95139e-016
rfoot -13.2808 -13.1321
rtoes -8.25451
lfemur -17.1751 -2.29962 -8.44793
ltibia 33.2501
lfoot -14.8081 3.45867
ltoes -57.5534
552
root -0.693168 18.6819 4.91836 0.945789 8.41844 -5.307
lowerback 29.3962 7.08158 -1.61188
upperback 5.0871 8.37296 -1.83386
thorax -10.2696 3.91192 -4.2626
lowerneck -18.8783 -8.95666 -8.30374
upperneck 7.69504 -11.1999 9.34164
head 6.38767 -4.97938 3.03515
rclavicle -6.75868e-015 7.15625e-015
rhumerus 10.2988 -9.30113 -37.675
rradius 69.202
rwrist -1.08607
rhand 4.16231 -50.3679
rfingers 7.12502
rthumb 29.5707 -78.0321
lclavicle -6.75868e-015 7.15625e-015
lhumerus -21.529 -11.511 74.5565
lradius 125.857
lwrist 1.7678
lhand -0.670483 -27.7011
lfingers 7.12502
lthumb 24.948 0.690351
rfemur 5.20162 -6.85476 18.8313
rtibia -3.18055e-015
rfoot -13.3336 -13.1593
rtoes -8.92827
lfemur -17.6031 -2.70133 -8.4454
ltibia 33.7302
lfoot -15.2908 3.91045
ltoes -57.4301
553
root -0.692194 18.6479 4.88648 1.28809 8.96948 -5.78009
lowerback 28.8701 7.14109 -1.30779
upperback 5.44445 8.64745 -1.12344
thorax -9.66494 4.06522 -3.63921
lowerneck -18.9188 -9.12975 -8.4214
upperneck 7.68427 -11.3246 8.82191
head 6.37074 -5.08358 2.86954
rclavicle 6.50026e-014 3.02153e-014
rhumerus 6.90653 -7.23451 -40.3471
rradius 72.4796
rwrist -0.568167
rhand 3.574 -51.0466
rfingers 7.12502
rthumb 29.0089 -78.8088
lclavicle 6.50026e-014 3.02153e-014
lhumerus -22.5085 -11.669 77.0455
lradius 125.555
lwrist 1.52712
lhand -0.96094 -27.8513
lfingers 7.12502
lthumb 24.6696 0.578451
rfemur 4.61569 -7.37482 19.3979
rtibia -2.14687e-014
rfoot -13.3512 -13.3238
rtoes -9.19031
lfemur -18.6667 -3.1696 -7.97599
ltibia 34.22
lfoot -15.5675 4.16212
ltoes -57.3545
